<?xml version="1.0" encoding="utf-8"?>
<!-- Generator: Adobe Illustrator 19.0.0, SVG Export Plug-In . SVG Version: 6.00 Build 0)  -->
<svg version="1.1" xmlns="http://www.w3.org/2000/svg" xmlns:xlink="http://www.w3.org/1999/xlink" x="0px" y="0px"
	 viewBox="0 0 800 206.1" style="enable-background:new 0 0 800 206.1;" xml:space="preserve">
<style type="text/css">
	.st0{fill:#FFFFFF;}
	.st1{fill:#FEEA99;}
	.st2{fill:#FEDA46;}
	.st3{fill:#FCB557;}
	.st4{fill:#FAA736;}
	.st5{fill:#EE233F;}
	.st6{fill:#D81F2A;}
	.st7{fill:#96CB5D;}
</style>
<g id="Title">
	<g id="XMLID_79_">
		<path id="XMLID_125_" class="st0" d="M122,30.7c8.8,4.2,15.9,10.1,21.2,17.5c5.3,7.5,8,15.8,8,25.1c0,8.8-2.4,17-7.1,24.4
			c-4.7,7.5-11.2,13.4-19.3,17.7c-8.2,4.4-17.2,6.5-26.9,6.5c-3.1,0-6.5-0.3-10.3-0.9l0.9,34.6H54.1L50.6,36.2
			c15.6-7.9,29.9-11.9,43-11.9C103.7,24.3,113.2,26.4,122,30.7z M95,91.2c3.7,0,7.2-0.8,10.6-2.4c3.4-1.6,6.1-3.8,8.2-6.5
			s3.1-5.7,3.1-8.9c0-5.6-2.1-10.3-6.2-14c-4.1-3.7-8.9-5.6-14.4-5.6c-3.4,0-6.8,0.9-10,2.6l0.7,33.4C89.6,90.7,92.3,91.2,95,91.2z"
			/>
		<path id="XMLID_128_" class="st0" d="M165.1,54.8c-3.2-1.8-5.7-4.2-7.7-7.3c-2-3.1-3-6.4-3-10c0-5.5,2.1-10.1,6.3-13.8
			c4.2-3.7,9.2-5.5,15-5.5c5.5,0,9.9,1.7,13.3,5c3.4,3.3,5.1,7.7,5.1,13.2c0,6.1-1.8,11.1-5.5,15c-3.7,4-8.3,5.9-13.8,5.9
			C171.5,57.5,168.3,56.6,165.1,54.8z M156.1,64H192v91.2h-33.2L156.1,64z"/>
		<path id="XMLID_131_" class="st0" d="M276.1,155.7h-79.6l-0.9-24.4L229.7,90h-31.5V63.5h73.3l3.1,26.5l-31.6,38.9l31.1-1.5
			L276.1,155.7z"/>
		<path id="XMLID_133_" class="st0" d="M375.4,19.8v136.2h-33.5v-9.6c-3.6,3.1-8,5.6-13.4,7.6c-5.4,1.9-10.8,2.9-16.3,2.9
			c-6.8,0-13.1-2.2-18.9-6.5c-5.8-4.3-10.5-10.1-13.9-17.5c-3.4-7.3-5.2-15.2-5.2-23.7c0-7.8,1.8-15.3,5.3-22.5
			c3.6-7.2,8.2-13.1,14-17.6c5.8-4.5,11.8-6.9,18.1-7c12-0.3,22,2.4,29.8,8.3L341,17.1L375.4,19.8z M331.9,125
			c2.9-1.8,5.2-4.1,7-7.1c1.8-2.9,2.7-5.9,2.7-9c0-4.8-1.9-9-5.6-12.6c-3.7-3.6-8.1-5.4-13-5.4c-4.7,0-8.9,1.8-12.5,5.4
			c-3.6,3.6-5.4,7.9-5.4,12.8c0,3.1,0.8,6.1,2.5,8.9c1.7,2.9,3.9,5.2,6.7,7c2.8,1.8,5.7,2.7,8.7,2.7C326,127.7,329,126.8,331.9,125z
			"/>
		<path id="XMLID_136_" class="st0" d="M458.8,75.9c7.9,8.4,11.9,19.8,11.9,34.2c0,2.4-0.1,4.2-0.2,5.5l-60.9,0.7
			c1.4,3.8,3.3,6.9,5.8,9.4c2.5,2.5,5.4,3.8,8.7,4c9.2,0.7,15.8-2,20-8.1l24.6,7.1c-1.5,5.4-4.4,10.2-8.6,14.5
			c-4.2,4.3-9.3,7.7-15.2,10.1c-5.9,2.4-12,3.6-18.3,3.6c-1.5,0-2.6-0.1-3.4-0.2c-7.9-0.6-15.2-3.2-21.9-7.7
			c-6.7-4.6-12-10.6-16-18.1c-4-7.5-5.9-15.6-5.9-24.4c0-1.7,0.1-3,0.2-4c0.5-7.6,2.8-14.3,7-20.3c4.2-6,9.7-10.6,16.5-13.9
			c6.8-3.3,14.4-5,22.6-5C439.8,63.3,450.9,67.5,458.8,75.9z M409.8,95.3l29.1,0.2c-0.5-3.3-1.8-5.9-4-7.7c-2.2-1.8-4.8-2.9-7.7-3.1
			C418.7,84,412.9,87.5,409.8,95.3z"/>
		<path id="XMLID_139_" class="st0" d="M508.7,157.1c-10.4,0-18.9-3.4-25.3-10.1c-6.4-6.8-9.6-16.3-9.5-28.6l0.3-84.6l32.5-9.6
			l0.2,84.6c0,4.7,1.3,8.2,3.8,10.4c2.5,2.2,5.4,3.4,8.8,3.4c2.4,0,4.4-0.5,5.8-1.5l7.6,30.4C524.3,155.2,516.2,157.1,508.7,157.1z"
			/>
		<path id="XMLID_141_" class="st0" d="M612.7,62l-24.1,90c-4.2,14.7-10.5,26-18.7,34c-8.2,8-17.7,12-28.6,12
			c-4.6,0-9.5-0.7-14.7-2.1c-5.2-1.4-10.1-3.2-14.7-5.5l7.7-32.2c2.2,1.8,5.4,3.4,9.8,4.8c4.4,1.4,8,2.1,10.8,2.1
			c5.2,0,9.1-2.2,11.9-6.5l-38.4-93.7l33.7-0.9l17.5,50.9l13.2-51.3L612.7,62z"/>
	</g>
</g>
<g id="Pizza">
	<g id="XMLID_2_">
		<path id="XMLID_19_" class="st1" d="M643.8,59.5L643.8,59.5L643.8,59.5z"/>
		<path id="XMLID_15_" class="st1" d="M676.2,109.4c2.5-2.3,5.5-3.6,8.8-4l9.1-8.6c-12.9-13.7-28.9-24.1-46.2-30.1l-5.5-1.9
			l-26.6,105.8l55.9-52.7C672.3,114.7,673.8,111.7,676.2,109.4z M666.4,83.7l8.1,8.6l-7.8,7.4l-8.1-8.6L666.4,83.7z M628.9,130.6
			l-2.3-2.5l6.3-24.9l3.1-0.6c5.8-1.1,12.2,1.1,16.5,5.7c6.8,7.2,7,18,0.5,24.2C646.5,138.6,635.7,137.7,628.9,130.6z"/>
		<path id="XMLID_14_" class="st2" d="M728.4,149.2l-1.9,0.4L728.4,149.2z"/>
		<path id="XMLID_11_" class="st2" d="M694.1,96.8c0,0-9.1,8.6-9.1,8.6c5.3-0.6,11.1,1.4,15.3,5.9c6.8,7.2,7,18,0.5,24.2
			c-6.5,6.1-17.3,5.3-24.1-1.9c-4.2-4.5-5.9-10.4-5-15.6l-55.9,52.7L723,150.2l-1.6-5.6C716.5,127,707,110.5,694.1,96.8z M662.1,152
			l-8.1-8.6l7.8-7.4l8.1,8.6L662.1,152z"/>
		<path id="XMLID_10_" class="st3" d="M694.1,96.8c0,0,19.6-18.4,19.6-18.4C697.3,61,676.9,47.7,654.7,40l-5.6-1.9l-1.2,5.4l-4,15.9
			l0,0l-1.3,5.3c0,0,5.5,1.9,5.5,1.9C665.2,72.7,681.2,83.1,694.1,96.8z"/>
		<path id="XMLID_9_" class="st4" d="M750.1,145l-1.6-5.6c-6.4-22.6-18.4-43.7-34.7-61l-19.6,18.4c12.9,13.7,22.4,30.2,27.3,47.8
			l1.6,5.6l3.5-0.7l1.9-0.4L750.1,145z"/>
		<path id="XMLID_8_" class="st5" d="M636,102.6l-3.1,0.6l-6.3,24.9l2.3,2.5l23.6-22.3C648.1,103.6,641.8,101.5,636,102.6z"/>
		<path id="XMLID_7_" class="st6" d="M652.5,108.3l-23.6,22.3c6.8,7.2,17.6,8,24.1,1.9C659.5,126.3,659.3,115.5,652.5,108.3z"/>
		<path id="XMLID_6_" class="st5" d="M671.7,117.9c-0.9,5.3,0.8,11.2,5,15.6l23.6-22.3c-4.2-4.5-10-6.5-15.3-5.9
			c-3.2,0.4-6.3,1.7-8.8,4C673.8,111.7,672.3,114.7,671.7,117.9z"/>
		<path id="XMLID_5_" class="st6" d="M700.8,135.5c6.5-6.1,6.3-17-0.5-24.2l-23.6,22.3C683.5,140.8,694.3,141.6,700.8,135.5z"/>
		
			<rect id="XMLID_4_" x="660.6" y="86.3" transform="matrix(-0.6862 -0.7274 0.7274 -0.6862 1057.1923 639.4702)" class="st7" width="11.9" height="10.7"/>
		
			<rect id="XMLID_3_" x="656" y="138.7" transform="matrix(-0.6862 -0.7274 0.7274 -0.6862 1011.371 724.3748)" class="st7" width="11.9" height="10.7"/>
	</g>
	<g id="XMLID_124_">
	</g>
	<g id="XMLID_143_">
	</g>
	<g id="XMLID_144_">
	</g>
	<g id="XMLID_145_">
	</g>
	<g id="XMLID_146_">
	</g>
	<g id="XMLID_147_">
	</g>
</g>
</svg>
