<?xml version="1.0" encoding="iso-8859-1"?>
<!-- Generator: Adobe Illustrator 19.0.0, SVG Export Plug-In . SVG Version: 6.00 Build 0)  -->
<svg version="1.1" id="Layer_1" xmlns="http://www.w3.org/2000/svg" xmlns:xlink="http://www.w3.org/1999/xlink" x="0px" y="0px"
	 viewBox="0 0 512 512" style="enable-background:new 0 0 512 512;" xml:space="preserve">
<rect x="51.029" y="183.021" style="fill:#FF5959;" width="409.926" height="250.467"/>
<g>
	<rect x="51.029" y="331.726" style="fill:#F2D383;" width="139.994" height="15.877"/>
	<rect x="320.972" y="331.726" style="fill:#F2D383;" width="139.994" height="15.877"/>
</g>
<rect x="51.029" y="411.419" style="opacity:0.2;enable-background:new    ;" width="22.931" height="22.071"/>
<rect x="51.029" y="288.223" style="opacity:0.2;enable-background:new    ;" width="45.864" height="22.07"/>
<rect x="345.444" y="300.66" style="opacity:0.2;enable-background:new    ;" width="45.864" height="22.07"/>
<rect x="310.112" y="391.012" style="opacity:0.2;enable-background:new    ;" width="45.864" height="22.071"/>
<rect x="382.84" y="183.021" style="opacity:0.2;enable-background:new    ;" width="45.864" height="22.07"/>
<rect x="415.102" y="357.903" style="opacity:0.2;enable-background:new    ;" width="45.864" height="22.071"/>
<rect x="138.332" y="214.405" style="opacity:0.2;enable-background:new    ;" width="45.864" height="22.07"/>
<rect x="76.941" y="174.098" style="opacity:0.2;enable-background:new    ;" width="45.864" height="22.071"/>
<rect x="114.421" y="363.65" style="opacity:0.2;enable-background:new    ;" width="45.864" height="22.07"/>
<path style="fill:#A4A9AD;" d="M504.061,453.064c0,2.352-1.922,4.276-4.275,4.276H12.214c-2.352,0-4.275-1.924-4.275-4.276v-15.302
	c0-2.352,1.923-4.276,4.275-4.276h487.573c2.353,0,4.275,1.924,4.275,4.276V453.064z"/>
<rect x="191.023" y="296.522" style="fill:#FFB819;" width="129.949" height="136.967"/>
<rect x="248.054" y="296.522" style="opacity:0.2;enable-background:new    ;" width="15.877" height="136.967"/>
<path style="fill:#333E48;" d="M460.958,185.136v-36.3c0-8.732-7.145-15.877-15.877-15.877H66.909
	c-8.732,0-15.877,7.145-15.877,15.877v36.3H460.958z"/>
<circle style="fill:#FFFFFF;" cx="255.992" cy="144.101" r="89.441"/>
<path style="opacity:0.2;enable-background:new    ;" d="M255.996,54.661c-49.399,0-89.444,40.045-89.444,89.444
	c0,3.634,0.242,7.208,0.663,10.728c0.105,0.205,0.183,0.394,0.204,0.546c0.799-5.794,2.169-11.403,4.022-16.787l84.555,84.554
	l84.555-84.555c1.853,5.384,3.223,10.995,4.022,16.788c0.021-0.151,0.096-0.325,0.199-0.508c0.424-3.532,0.668-7.119,0.668-10.765
	C345.44,94.706,305.394,54.661,255.996,54.661z"/>
<path style="fill:#333E48;" d="M255.996,241.487c-53.696,0-97.383-43.686-97.383-97.383s43.685-97.383,97.383-97.383
	s97.383,43.685,97.383,97.383C353.378,197.802,309.693,241.487,255.996,241.487z M255.996,62.6
	c-44.943,0-81.506,36.564-81.506,81.506s36.563,81.506,81.506,81.506s81.506-36.564,81.506-81.506
	C337.501,99.163,300.938,62.6,255.996,62.6z"/>
<path style="fill:#D68231;" d="M155.367,117.224l100.628,100.627l102.313-102.313C301.666,60.721,211.316,61.278,155.367,117.224z"
	/>
<path style="fill:#F2D383;" d="M180.632,142.489l75.363,75.362l77.048-77.048C290.36,99.935,222.626,100.495,180.632,142.489z"/>
<g>
	<path style="fill:#A93439;" d="M235.943,197.8c11.83-11.829,11.831-31.01,0-42.84c-11.829-11.831-31.01-11.831-42.84,0
		L235.943,197.8z"/>
	<path style="fill:#A93439;" d="M268.127,144.303c-11.831,11.829-11.831,31.01,0,42.841c3.328,3.327,7.238,5.72,11.402,7.174
		l38.613-38.613c-1.455-4.165-3.848-8.075-7.175-11.402C299.138,132.473,279.957,132.473,268.127,144.303z"/>
</g>
<path style="opacity:0.1;enable-background:new    ;" d="M333.045,140.803c-42.684-40.868-110.418-40.308-152.412,1.686l9.545,9.544
	c35.49-35.49,93.03-35.491,128.52-0.001c0.523,0.523,1.012,1.067,1.52,1.599L333.045,140.803z"/>
<path style="fill:#FFFFFF;" d="M430.906,242.016c0-5.822-4.763-10.585-10.585-10.585h-64.296c-5.822,0-10.585,4.763-10.585,10.585
	v31.215c0,5.822,4.763,10.585,10.585,10.585h64.296c5.822,0,10.585-4.763,10.585-10.585V242.016z"/>
<path style="opacity:0.2;enable-background:new    ;" d="M420.321,231.432h-64.296c-5.822,0-10.585,4.763-10.585,10.585v15.172
	c0-5.822,4.763-10.585,10.585-10.585h64.296c5.822,0,10.585,4.763,10.585,10.585v-15.172
	C430.906,236.195,426.143,231.432,420.321,231.432z"/>
<path style="fill:#333E48;" d="M420.321,291.756h-64.296c-10.213,0-18.523-8.31-18.523-18.523v-31.215
	c0-10.214,8.31-18.523,18.523-18.523h64.296c10.213,0,18.523,8.309,18.523,18.523v31.215
	C438.845,283.446,430.535,291.756,420.321,291.756z M356.024,239.37c-1.434,0-2.646,1.212-2.646,2.646v31.215
	c0,1.434,1.212,2.646,2.646,2.646h64.296c1.434,0,2.646-1.212,2.646-2.646v-31.215c0-1.434-1.212-2.646-2.646-2.646H356.024z"/>
<path style="fill:#FFFFFF;" d="M81.086,242.016c0-5.822,4.763-10.585,10.585-10.585h64.296c5.822,0,10.585,4.763,10.585,10.585
	v31.215c0,5.822-4.763,10.585-10.585,10.585H91.67c-5.822,0-10.585-4.763-10.585-10.585V242.016z"/>
<path style="opacity:0.2;enable-background:new    ;" d="M91.67,231.432h64.296c5.822,0,10.585,4.763,10.585,10.585v15.172
	c0-5.822-4.763-10.585-10.585-10.585H91.67c-5.822,0-10.585,4.763-10.585,10.585v-15.172
	C81.086,236.195,85.849,231.432,91.67,231.432z"/>
<g>
	<path style="fill:#333E48;" d="M155.967,291.756H91.67c-10.213,0-18.523-8.31-18.523-18.523v-31.215
		c0-10.214,8.31-18.523,18.523-18.523h64.296c10.213,0,18.523,8.309,18.523,18.523v31.215
		C174.491,283.446,166.18,291.756,155.967,291.756z M91.67,239.37c-1.434,0-2.646,1.212-2.646,2.646v31.215
		c0,1.434,1.212,2.646,2.646,2.646h64.296c1.434,0,2.646-1.212,2.646-2.646v-31.215c0-1.434-1.212-2.646-2.646-2.646H91.67z"/>
	<rect x="127.705" y="433.488" style="fill:#333E48;" width="256.595" height="23.855"/>
</g>
<g>
	<path style="fill:#00AD68;" d="M482.371,433.485c0-30.469-24.701-55.17-55.17-55.17c-30.47,0-55.171,24.701-55.171,55.17H482.371z"
		/>
	<path style="fill:#00AD68;" d="M138.373,433.485c0-30.469-24.701-55.17-55.171-55.17s-55.17,24.701-55.17,55.17H138.373z"/>
</g>
<path style="fill:#333E48;" d="M328.907,433.485H313.03V304.463H198.961v129.022h-15.877v-136.96c0-4.384,3.554-7.939,7.939-7.939
	h129.946c4.384,0,7.939,3.554,7.939,7.939V433.485z"/>
<path style="fill:#1E252B;" d="M356.024,291.756h64.296c10.213,0,18.523-8.31,18.523-18.523v-31.215
	c0-10.214-8.31-18.523-18.523-18.523h-64.296c-10.213,0-18.523,8.309-18.523,18.523v31.215
	C337.501,283.446,345.811,291.756,356.024,291.756z M353.378,242.016c0-1.434,1.212-2.646,2.646-2.646h64.296
	c1.434,0,2.646,1.212,2.646,2.646v31.215c0,1.434-1.212,2.646-2.646,2.646h-64.296c-1.434,0-2.646-1.212-2.646-2.646V242.016z
	 M499.786,425.546h-9.993c-1.97-15.609-9.653-29.455-20.895-39.374V185.136h-0.001v-36.3c0-13.132-10.683-23.816-23.816-23.816
	h-85.027l3.869-3.869c1.505-1.504,2.342-3.55,2.325-5.679c-0.018-2.128-0.888-4.16-2.418-5.64
	c-8.567-8.291-17.955-15.458-27.966-21.443c-18.247-26.124-47.956-41.669-79.868-41.669c-33.698,0-64.313,16.908-82.295,45.315
	c-8.527,5.642-16.551,12.179-23.947,19.574c-1.489,1.488-2.325,3.508-2.325,5.613c0,2.105,0.836,4.125,2.325,5.613l2.183,2.183
	H66.909c-13.132,0-23.816,10.683-23.816,23.816v235.962c-12.108,9.992-20.421,24.412-22.483,40.749h-8.397
	C5.479,425.546,0,431.026,0,437.761v15.302c0,6.735,5.479,12.215,12.214,12.215h487.573c6.735,0,12.214-5.48,12.214-12.215v-15.302
	C512,431.026,506.521,425.546,499.786,425.546z M353.314,140.897h91.768c4.378,0,7.939,3.561,7.939,7.939v28.362H347.585
	c3.746-10.336,5.793-21.48,5.793-33.093C353.378,143.036,353.348,141.967,353.314,140.897z M255.996,62.6
	c12.385,0,24.371,2.805,35.194,7.985c-10.883-2.429-22.103-3.682-33.499-3.682c-13.829,0-27.376,1.832-40.369,5.372
	C228.968,66.007,242.171,62.6,255.996,62.6z M257.691,82.78c32.988,0,64.338,11.669,89.133,33.018l-14.085,14.085
	c-21.341-17.907-48.138-27.542-76.241-27.246c-28.116,0.287-54.693,10.466-75.675,28.819l-14.07-14.07
	C191.824,95.009,223.818,82.78,257.691,82.78z M289.548,127.493c-10.212,0-19.813,3.977-27.032,11.198
	c-7.221,7.221-11.198,16.821-11.198,27.033c0,0.091,0.005,0.181,0.006,0.272c-1.749-6.232-5.065-11.946-9.767-16.648
	c-7.221-7.221-16.821-11.199-27.033-11.199c-7.512,0-14.688,2.159-20.835,6.171l-1.593-1.594
	c18.003-15.414,40.632-23.97,64.564-24.215c23.826-0.245,46.531,7.767,64.787,22.662L320,142.62c-1.046-1.373-2.178-2.69-3.419-3.93
	C309.36,131.469,299.76,127.493,289.548,127.493z M308.599,154.022l-30.753,30.753c-1.476-0.908-2.849-1.989-4.105-3.245
	c-4.222-4.222-6.547-9.835-6.547-15.807c0-5.971,2.324-11.584,6.548-15.806c4.221-4.222,9.835-6.548,15.806-6.548
	s11.584,2.324,15.807,6.549C306.609,151.172,307.69,152.546,308.599,154.022z M236.878,176.38c0,3.211-0.693,6.311-1.972,9.155
	L205.369,156c2.844-1.279,5.943-1.973,9.155-1.973c5.971,0,11.584,2.325,15.806,6.548
	C234.553,164.795,236.878,170.41,236.878,176.38z M250.382,223.466c1.075,1.075,2.385,1.769,3.764,2.098
	c-42.902-0.963-77.722-35.218-79.566-77.9L250.382,223.466z M246.584,197.213c4.012-6.145,6.17-13.322,6.171-20.834
	c0-0.091-0.005-0.181-0.006-0.272c1.749,6.232,5.065,11.947,9.767,16.649c1.242,1.242,2.557,2.374,3.93,3.419l-10.449,10.449
	L246.584,197.213z M261.609,223.466l75.802-75.802c-1.844,42.683-36.663,76.937-79.566,77.901
	C259.224,225.234,260.534,224.541,261.609,223.466z M58.971,148.836c0-4.378,3.561-7.939,7.939-7.939h91.769
	c-0.035,1.069-0.065,2.139-0.065,3.207c0,11.614,2.047,22.756,5.793,33.093H58.971V148.836z M58.971,193.075h112.88
	c16.902,28.931,48.29,48.413,84.146,48.413s67.243-19.481,84.146-48.413h112.88v182.848c-7.888-3.552-16.623-5.546-25.82-5.546
	c-32.108,0-58.673,24.108-62.592,55.17h-35.701V296.525c0-4.384-3.554-7.939-7.939-7.939H191.023c-4.384,0-7.939,3.554-7.939,7.939
	v129.022h-37.289c-3.92-31.062-30.484-55.17-62.592-55.17c-8.582,0-16.766,1.728-24.233,4.846
	C58.971,375.222,58.971,193.075,58.971,193.075z M313.03,304.463v121.083H198.961V304.463H313.03z M119.762,449.401H15.877v-7.978
	h103.885V449.401z M36.652,425.546c3.787-22.275,23.213-39.293,46.551-39.293s42.763,17.018,46.551,39.293H36.652z M376.36,449.401
	h-240.72v-7.978h240.72V449.401z M427.201,386.254c23.337,0,42.763,17.018,46.552,39.293h-93.102
	C384.437,403.272,403.863,386.254,427.201,386.254z M496.123,449.401H392.238v-7.978h103.885V449.401z M155.967,291.756
	c10.213,0,18.523-8.31,18.523-18.523v-31.215c0-10.214-8.31-18.523-18.523-18.523H91.67c-10.213,0-18.523,8.309-18.523,18.523
	v31.215c0,10.213,8.31,18.523,18.523,18.523H155.967z M89.024,273.233v-31.215c0-1.434,1.212-2.646,2.646-2.646h64.296
	c1.434,0,2.646,1.212,2.646,2.646v31.215c0,1.434-1.212,2.646-2.646,2.646H91.67C90.236,275.879,89.024,274.667,89.024,273.233z"/>
<g>
</g>
<g>
</g>
<g>
</g>
<g>
</g>
<g>
</g>
<g>
</g>
<g>
</g>
<g>
</g>
<g>
</g>
<g>
</g>
<g>
</g>
<g>
</g>
<g>
</g>
<g>
</g>
<g>
</g>
</svg>
